<svg width="64" height="64" viewBox="0 0 64 64" fill="none" xmlns="http://www.w3.org/2000/svg">
<rect width="64" height="64" fill="white"/>
<g clip-path="url(#clip0_83_4)">
<path d="M30.3095 11.3276V27.3922H21.8274C21.8274 32.1097 25.626 35.9336 30.3095 35.9336V43.3787C21.542 43.3787 14.3564 36.2196 14.3564 27.3909V11.3262H30.3095V11.3276Z" fill="#F5B60F"/>
<path d="M24.7818 20.8342C25.6315 20.8342 26.3202 20.1406 26.3202 19.285C26.3202 18.4295 25.6315 17.7359 24.7818 17.7359C23.9322 17.7359 23.2435 18.4295 23.2435 19.285C23.2435 20.1406 23.9322 20.8342 24.7818 20.8342Z" fill="white"/>
<path d="M47.9574 11.3262H32.5565V27.3908H41.04C41.04 27.6755 41.0268 27.9575 40.9992 28.2356C40.9519 28.7268 40.8625 29.2048 40.7349 29.6669C40.6955 29.8112 40.6521 29.9542 40.6048 30.0959C39.4819 33.4867 36.3012 35.9322 32.5565 35.9322V43.3773C38.5063 43.3773 43.7275 40.0805 46.469 35.2027C46.9108 34.4162 47.2895 33.59 47.5945 32.7294C48.1875 31.0598 48.511 29.263 48.511 27.3895V14.0458C48.4137 13.1097 48.2256 12.2001 47.9587 11.3249L47.9574 11.3262ZM38.0842 20.8328C37.2348 20.8328 36.5458 20.139 36.5458 19.2837C36.5458 18.4284 37.2348 17.7346 38.0842 17.7346C38.9336 17.7346 39.6212 18.4284 39.6212 19.2837C39.6212 20.139 38.9336 20.8328 38.0842 20.8328Z" fill="#912C8C"/>
<path d="M21.6669 12.3457C24.4729 12.3457 26.7475 10.0552 26.7475 7.22963C26.7475 4.40408 24.4729 2.11353 21.6669 2.11353C18.861 2.11353 16.5864 4.40408 16.5864 7.22963C16.5864 10.0552 18.861 12.3457 21.6669 12.3457Z" fill="#F5B60F"/>
<path d="M30.3094 1.87654V11.4692C29.439 12.0253 28.4069 12.3457 27.2998 12.3457C26.361 12.3457 25.4774 12.1154 24.699 11.7062C24.5991 11.6533 24.5004 11.599 24.4045 11.5407C22.7727 10.5543 21.6788 8.76024 21.6656 6.70797V6.67354C21.6656 5.00393 22.3822 3.50246 23.5209 2.46573C24.5215 1.55479 25.8455 1.00134 27.2984 1.00134C28.4055 1.00134 29.4364 1.32309 30.3081 1.87786L30.3094 1.87654Z" fill="#F5B60F"/>
<path d="M18.4245 20.3946C21.9363 20.3946 24.7831 17.5278 24.7831 13.9915C24.7831 10.4552 21.9363 7.58844 18.4245 7.58844C14.9127 7.58844 12.0659 10.4552 12.0659 13.9915C12.0659 17.5278 14.9127 20.3946 18.4245 20.3946Z" fill="#F5B60F"/>
<path d="M16.585 25.0632C18.9044 25.0632 20.7847 23.1698 20.7847 20.8342C20.7847 18.4985 18.9044 16.6052 16.585 16.6052C14.2656 16.6052 12.3854 18.4985 12.3854 20.8342C12.3854 23.1698 14.2656 25.0632 16.585 25.0632Z" fill="#F5B60F"/>
<path d="M48.5754 14.9554C48.5688 14.7608 48.557 14.5661 48.5399 14.3728C48.532 14.2642 48.5215 14.1543 48.5109 14.0458C48.4137 13.1097 48.2256 12.2001 47.9587 11.3249C46.9463 8.02403 44.7794 5.23162 41.9327 3.42827C41.8972 3.40576 41.8604 3.38326 41.8249 3.36207C39.6567 2.01287 37.0994 1.23566 34.3645 1.23566C33.7531 1.23566 33.1495 1.27405 32.5579 1.35085V27.3908H41.0413C41.0413 27.6755 41.0281 27.9575 41.0005 28.2355C45.095 26.0575 48.0047 21.9278 48.5109 17.0752C48.5215 16.9693 48.532 16.8647 48.5399 16.7574C48.5622 16.4873 48.5767 16.2172 48.5833 15.9431C48.5872 15.8173 48.5898 15.6902 48.5898 15.5618C48.5898 15.3592 48.5859 15.158 48.5767 14.9567L48.5754 14.9554ZM38.0842 20.8328C37.2348 20.8328 36.5458 20.139 36.5458 19.2837C36.5458 18.4284 37.2348 17.7346 38.0842 17.7346C38.9336 17.7346 39.6212 18.4284 39.6212 19.2837C39.6212 20.139 38.9336 20.8328 38.0842 20.8328Z" fill="#912C8C"/>
<path d="M54.2345 31.0584C54.2345 31.0584 51.422 32.0806 48.2388 32.299C47.8667 32.3255 47.4906 32.3401 47.1133 32.3414C44.9385 32.3467 42.7256 31.8939 41.2175 30.4308L41.2503 29.7529L41.3726 27.1379L41.3792 26.9883L41.4831 24.7877L42.105 11.6056L42.2168 9.25671L42.4692 3.90625C42.5047 3.92743 42.5415 3.94862 42.577 3.97113C45.4224 5.71489 47.5892 8.41462 48.603 11.6056C48.8712 12.4503 49.0579 13.3308 49.1552 14.2364C49.1671 14.341 49.1763 14.447 49.1842 14.5529C49.1881 15.0706 49.2026 15.575 49.2275 16.0702C49.718 25.7199 54.2345 31.0611 54.2345 31.0611V31.0584Z" fill="#912C8C"/>
<path d="M38.0829 20.8342C38.9325 20.8342 39.6212 20.1406 39.6212 19.285C39.6212 18.4295 38.9325 17.7359 38.0829 17.7359C37.2333 17.7359 36.5445 18.4295 36.5445 19.285C36.5445 20.1406 37.2333 20.8342 38.0829 20.8342Z" fill="white"/>
<path d="M5.75461 61.7418V55.2911H3V52.7105H11.3914V55.2911H8.63677V61.7418H5.75461Z" fill="black"/>
<path d="M11.9818 61.7418V52.7119H19.1556V55.1627H14.8639V56.1954H18.2589V58.2596H14.8639V59.2924H19.1556V61.7432H11.9818V61.7418Z" fill="black"/>
<path d="M19.7473 61.7418L22.2455 52.7119H26.9211L29.4193 61.7418H26.6003L26.1519 60.0007H23.0133L22.565 61.7418H19.7459H19.7473ZM23.6077 57.8068H25.5931L24.9528 55.2262H24.248L23.6077 57.8068Z" fill="black"/>
<path d="M31.5954 61.7418V58.4516L28.136 52.7105H29.4811L32.1069 57.0971H32.2344L34.8602 52.7105H36.2053L32.7459 58.4516V61.7418H31.5928H31.5954Z" fill="black"/>
<path d="M40.3207 62C39.6199 62 39.0033 61.8491 38.4694 61.5485C37.9356 61.248 37.5227 60.8203 37.2335 60.2642C36.9429 59.7094 36.7982 59.062 36.7982 58.3231V52.7119H37.9514V58.3231C37.9514 59.1229 38.167 59.7531 38.5983 60.2126C39.0296 60.6733 39.6041 60.9024 40.3221 60.9024C41.04 60.9024 41.6132 60.672 42.0458 60.2126C42.4771 59.7531 42.6927 59.1229 42.6927 58.3231V52.7119H43.8459V58.3231C43.8459 59.0633 43.7012 59.7094 43.4106 60.2642C43.1201 60.819 42.7085 61.2466 42.1747 61.5485C41.6408 61.8491 41.0242 62 40.3234 62H40.3207Z" fill="black"/>
<path d="M44.4349 61.7418V52.7119H47.3815C48.269 52.7119 49.0698 52.9105 49.7837 53.305C50.4964 53.7009 51.0539 54.2424 51.4562 54.931C51.8572 55.6195 52.0584 56.3848 52.0584 57.2268C52.0584 58.0689 51.8572 58.8356 51.4562 59.5227C51.0552 60.2112 50.4977 60.7528 49.7837 61.1487C49.0711 61.5445 48.2703 61.7418 47.3815 61.7418H44.4349ZM47.3815 60.6455C48.0731 60.6455 48.6858 60.4999 49.2196 60.2073C49.7535 59.9147 50.1677 59.5108 50.4622 58.9944C50.7567 58.4781 50.904 57.8889 50.904 57.2268C50.904 56.5648 50.7567 55.9756 50.4622 55.4592C50.1677 54.9429 49.7535 54.539 49.2196 54.2464C48.6858 53.9538 48.0731 53.8082 47.3815 53.8082H45.588V60.6455H47.3815Z" fill="black"/>
<path d="M57.3244 62C56.4355 62 55.6374 61.7961 54.9287 61.387C54.22 60.9792 53.6625 60.4112 53.2562 59.6843C52.8499 58.9574 52.6475 58.1378 52.6475 57.2269C52.6475 56.3159 52.8499 55.4963 53.2562 54.7694C53.6612 54.0425 54.2187 53.4745 54.9287 53.0667C55.6374 52.6589 56.4355 52.4537 57.3244 52.4537C58.2132 52.4537 59.0113 52.6576 59.72 53.0667C60.4288 53.4758 60.9862 54.0425 61.3925 54.7694C61.7975 55.4963 62.0013 56.3159 62.0013 57.2269C62.0013 58.1378 61.7988 58.9574 61.3925 59.6843C60.9862 60.4112 60.4301 60.9792 59.72 61.387C59.0113 61.7948 58.2132 62 57.3244 62ZM57.3244 60.9037C57.9989 60.9037 58.6051 60.7488 59.1441 60.439C59.6819 60.1292 60.1014 59.6975 60.3998 59.1427C60.6983 58.588 60.8482 57.9498 60.8482 57.2269C60.8482 56.5039 60.6983 55.8657 60.3998 55.311C60.1014 54.7562 59.6819 54.3245 59.1441 54.0147C58.6064 53.7049 58.0002 53.55 57.3244 53.55C56.6486 53.55 56.0437 53.7049 55.5046 54.0147C54.9669 54.3245 54.5474 54.7562 54.2489 55.311C53.9505 55.8657 53.8006 56.5039 53.8006 57.2269C53.8006 57.9498 53.9492 58.588 54.2489 59.1427C54.5474 59.6975 54.9669 60.1292 55.5046 60.439C56.0424 60.7488 56.6486 60.9037 57.3244 60.9037Z" fill="black"/>
</g>
<defs>
<clipPath id="clip0_83_4">
<rect width="59" height="61" fill="white" transform="translate(3 1)"/>
</clipPath>
</defs>
</svg>
