<svg width="192" height="192" viewBox="0 0 192 192" fill="none" xmlns="http://www.w3.org/2000/svg">
<rect width="192" height="192" fill="white"/>
<g clip-path="url(#clip0_83_5)">
<path d="M89.7056 33.6598V82.9071H63.3967C63.3967 97.3691 75.1788 109.091 89.7056 109.091V131.915C62.5117 131.915 40.224 109.968 40.224 82.903V33.6558H89.7056V33.6598Z" fill="#F5B60F"/>
<path d="M72.5606 62.8031C75.1958 62.8031 77.3321 60.6769 77.3321 58.0541C77.3321 55.4313 75.1958 53.3051 72.5606 53.3051C69.9253 53.3051 67.789 55.4313 67.789 58.0541C67.789 60.6769 69.9253 62.8031 72.5606 62.8031Z" fill="white"/>
<path d="M144.444 33.6558H96.6754V82.9031H122.988C122.988 83.7757 122.948 84.6403 122.862 85.4927C122.715 86.9985 122.438 88.4638 122.042 89.8804C121.92 90.3228 121.785 90.7612 121.638 91.1955C118.156 101.59 108.29 109.087 96.6754 109.087V131.911C115.13 131.911 131.324 121.804 139.828 106.851C141.198 104.44 142.372 101.907 143.319 99.2688C145.158 94.1504 146.161 88.6424 146.161 82.899V41.9929C145.859 39.1232 145.276 36.3347 144.448 33.6517L144.444 33.6558ZM113.82 62.7991C111.186 62.7991 109.049 60.6722 109.049 58.0501C109.049 55.428 111.186 53.3011 113.82 53.3011C116.455 53.3011 118.588 55.428 118.588 58.0501C118.588 60.6722 116.455 62.7991 113.82 62.7991Z" fill="#912C8C"/>
<path d="M62.8992 36.7812C71.6023 36.7812 78.6576 29.7593 78.6576 21.0974C78.6576 12.4354 71.6023 5.41357 62.8992 5.41357C54.196 5.41357 47.1407 12.4354 47.1407 21.0974C47.1407 29.7593 54.196 36.7812 62.8992 36.7812Z" fill="#F5B60F"/>
<path d="M89.7056 4.68706V34.0942C87.0058 35.7989 83.8044 36.7812 80.3705 36.7812C77.4586 36.7812 74.718 36.0749 72.3036 34.8207C71.9937 34.6584 71.6878 34.4919 71.3901 34.3133C66.329 31.2894 62.9359 25.7896 62.8951 19.4982V19.3926C62.8951 14.2743 65.1177 9.67145 68.6495 6.49329C71.7531 3.70073 75.8599 2.00409 80.3664 2.00409C83.8003 2.00409 86.9976 2.99041 89.7015 4.69112L89.7056 4.68706Z" fill="#F5B60F"/>
<path d="M52.8422 61.4555C63.7346 61.4555 72.5647 52.6673 72.5647 41.8264C72.5647 30.9856 63.7346 22.1973 52.8422 22.1973C41.9497 22.1973 33.1197 30.9856 33.1197 41.8264C33.1197 52.6673 41.9497 61.4555 52.8422 61.4555Z" fill="#F5B60F"/>
<path d="M47.1366 75.7674C54.3307 75.7674 60.1626 69.9631 60.1626 62.8031C60.1626 55.6431 54.3307 49.8388 47.1366 49.8388C39.9426 49.8388 34.1107 55.6431 34.1107 62.8031C34.1107 69.9631 39.9426 75.7674 47.1366 75.7674Z" fill="#F5B60F"/>
<path d="M146.361 44.7813C146.341 44.1847 146.304 43.588 146.251 42.9954C146.226 42.6626 146.194 42.3257 146.161 41.9928C145.859 39.1232 145.276 36.3347 144.448 33.6517C141.308 23.5327 134.587 14.9724 125.757 9.4441C125.647 9.3751 125.533 9.30609 125.423 9.24115C118.698 5.10508 110.766 2.72247 102.283 2.72247C100.387 2.72247 98.5147 2.84018 96.6794 3.0756V82.903H122.992C122.992 83.7757 122.952 84.6403 122.866 85.4926C135.566 78.8157 144.591 66.1558 146.161 51.2797C146.194 50.955 146.226 50.6344 146.251 50.3056C146.32 49.4776 146.365 48.6495 146.385 47.8093C146.398 47.4237 146.406 47.0341 146.406 46.6403C146.406 46.0193 146.394 45.4024 146.365 44.7854L146.361 44.7813ZM113.82 62.799C111.186 62.799 109.049 60.6721 109.049 58.0501C109.049 55.428 111.186 53.3011 113.82 53.3011C116.455 53.3011 118.588 55.428 118.588 58.0501C118.588 60.6721 116.455 62.799 113.82 62.799Z" fill="#912C8C"/>
<path d="M163.914 94.1464C163.914 94.1464 155.19 97.2799 145.317 97.9496C144.163 98.0308 142.996 98.0754 141.826 98.0795C135.08 98.0957 128.217 96.7076 123.539 92.2224L123.641 90.1442L124.02 82.1278L124.041 81.6692L124.363 74.9232L126.292 34.5122L126.638 27.3117L127.421 10.9094C127.532 10.9744 127.646 11.0393 127.756 11.1083C136.581 16.454 143.302 24.7302 146.447 34.5122C147.278 37.1018 147.858 39.8011 148.159 42.5774C148.196 42.898 148.225 43.2227 148.249 43.5475C148.261 45.1345 148.306 46.681 148.384 48.199C149.905 77.7807 163.914 94.1545 163.914 94.1545V94.1464Z" fill="#912C8C"/>
<path d="M113.816 62.8031C116.452 62.8031 118.588 60.6769 118.588 58.0542C118.588 55.4314 116.452 53.3052 113.816 53.3052C111.181 53.3052 109.045 55.4314 109.045 58.0542C109.045 60.6769 111.181 62.8031 113.816 62.8031Z" fill="white"/>
<path d="M13.544 188.209V168.433H5V160.522H31.0275V168.433H22.4835V188.209H13.544Z" fill="black"/>
<path d="M32.8586 188.209V160.526H55.1097V168.04H41.7982V171.206H52.3283V177.533H41.7982V180.699H55.1097V188.213H32.8586V188.209Z" fill="black"/>
<path d="M56.9449 188.209L64.6936 160.526H79.1959L86.9446 188.209H78.2008L76.8101 182.871H67.0753L65.6846 188.209H56.9408H56.9449ZM68.9187 176.145H75.0768L73.0907 168.234H70.9048L68.9187 176.145Z" fill="black"/>
<path d="M93.6942 188.209V178.122L82.9642 160.522H87.1363L95.2806 173.97H95.6762L103.82 160.522H107.993L97.2626 178.122V188.209H93.686H93.6942Z" fill="black"/>
<path d="M120.758 189C118.584 189 116.671 188.537 115.015 187.616C113.36 186.695 112.079 185.383 111.182 183.679C110.28 181.978 109.832 179.993 109.832 177.728V160.526H113.408V177.728C113.408 180.18 114.077 182.112 115.415 183.52C116.753 184.933 118.535 185.635 120.762 185.635C122.988 185.635 124.766 184.929 126.108 183.52C127.446 182.112 128.115 180.18 128.115 177.728V160.526H131.691V177.728C131.691 179.997 131.243 181.978 130.341 183.679C129.44 185.379 128.164 186.69 126.508 187.616C124.852 188.537 122.939 189 120.766 189H120.758Z" fill="black"/>
<path d="M133.518 188.209V160.526H142.658C145.411 160.526 147.894 161.135 150.109 162.345C152.319 163.559 154.048 165.219 155.296 167.329C156.54 169.44 157.164 171.786 157.164 174.367C157.164 176.949 156.54 179.299 155.296 181.406C154.053 183.516 152.323 185.176 150.109 186.39C147.898 187.604 145.415 188.209 142.658 188.209H133.518ZM142.658 184.848C144.803 184.848 146.703 184.401 148.359 183.504C150.015 182.607 151.3 181.369 152.213 179.786C153.127 178.203 153.583 176.397 153.583 174.367C153.583 172.338 153.127 170.532 152.213 168.949C151.3 167.366 150.015 166.128 148.359 165.231C146.703 164.334 144.803 163.887 142.658 163.887H137.095V184.848H142.658Z" fill="black"/>
<path d="M173.498 189C170.741 189 168.265 188.375 166.067 187.121C163.869 185.871 162.14 184.129 160.88 181.901C159.619 179.673 158.991 177.16 158.991 174.367C158.991 171.575 159.619 169.062 160.88 166.834C162.136 164.606 163.865 162.864 166.067 161.614C168.265 160.364 170.741 159.735 173.498 159.735C176.255 159.735 178.73 160.36 180.928 161.614C183.126 162.868 184.856 164.606 186.116 166.834C187.372 169.062 188.004 171.575 188.004 174.367C188.004 177.16 187.376 179.673 186.116 181.901C184.856 184.129 183.131 185.871 180.928 187.121C178.73 188.371 176.255 189 173.498 189ZM173.498 185.639C175.59 185.639 177.47 185.164 179.142 184.215C180.81 183.265 182.111 181.941 183.037 180.241C183.962 178.54 184.427 176.584 184.427 174.367C184.427 172.151 183.962 170.195 183.037 168.494C182.111 166.793 180.81 165.47 179.142 164.52C177.474 163.571 175.594 163.096 173.498 163.096C171.401 163.096 169.525 163.571 167.853 164.52C166.185 165.47 164.884 166.793 163.959 168.494C163.033 170.195 162.568 172.151 162.568 174.367C162.568 176.584 163.029 178.54 163.959 180.241C164.884 181.941 166.185 183.265 167.853 184.215C169.521 185.164 171.401 185.639 173.498 185.639Z" fill="black"/>
</g>
<defs>
<clipPath id="clip0_83_5">
<rect width="183" height="187" fill="white" transform="translate(5 2)"/>
</clipPath>
</defs>
</svg>
