<svg width="512" height="512" viewBox="0 0 512 512" fill="none" xmlns="http://www.w3.org/2000/svg">
<rect width="512" height="512" fill="white"/>
<g clip-path="url(#clip0_83_6)">
<path d="M238.196 88.8371V222.358H167.32C167.32 261.568 199.061 293.349 238.196 293.349V355.229C164.936 355.229 104.893 295.726 104.893 222.347V88.8261H238.196V88.8371Z" fill="#F5B60F"/>
<path d="M192.007 167.851C199.107 167.851 204.862 162.087 204.862 154.976C204.862 147.865 199.107 142.1 192.007 142.1C184.908 142.1 179.153 147.865 179.153 154.976C179.153 162.087 184.908 167.851 192.007 167.851Z" fill="white"/>
<path d="M385.661 88.8261H256.972V222.347H327.859C327.859 224.713 327.749 227.057 327.519 229.368C327.123 233.451 326.376 237.423 325.31 241.264C324.981 242.463 324.618 243.652 324.223 244.829C314.84 273.013 288.263 293.338 256.972 293.338V355.218C306.688 355.218 350.316 327.816 373.224 287.275C376.915 280.738 380.08 273.871 382.629 266.718C387.584 252.841 390.286 237.907 390.286 222.336V111.43C389.473 103.649 387.902 96.0892 385.672 88.8151L385.661 88.8261ZM303.161 167.84C296.063 167.84 290.306 162.074 290.306 154.965C290.306 147.856 296.063 142.089 303.161 142.089C310.258 142.089 316.005 147.856 316.005 154.965C316.005 162.074 310.258 167.84 303.161 167.84Z" fill="#912C8C"/>
<path d="M165.98 97.2997C189.426 97.2997 208.433 78.2618 208.433 54.7774C208.433 31.2929 189.426 12.255 165.98 12.255C142.534 12.255 123.527 31.2929 123.527 54.7774C123.527 78.2618 142.534 97.2997 165.98 97.2997Z" fill="#F5B60F"/>
<path d="M238.196 10.2852V90.0146C230.923 94.6366 222.298 97.2997 213.047 97.2997C205.203 97.2997 197.819 95.3849 191.315 91.9844C190.48 91.5443 189.656 91.0931 188.854 90.6088C175.22 82.4103 166.079 67.4989 165.969 50.4415V50.1554C165.969 36.2784 171.957 23.799 181.471 15.1823C189.832 7.611 200.896 3.01102 213.036 3.01102C222.287 3.01102 230.901 5.68517 238.185 10.2962L238.196 10.2852Z" fill="#F5B60F"/>
<path d="M138.886 164.198C168.23 164.198 192.018 140.371 192.018 110.979C192.018 81.5866 168.23 57.7596 138.886 57.7596C109.542 57.7596 85.754 81.5866 85.754 110.979C85.754 140.371 109.542 164.198 138.886 164.198Z" fill="#F5B60F"/>
<path d="M123.516 203C142.896 203 158.608 187.264 158.608 167.851C158.608 148.439 142.896 132.702 123.516 132.702C104.135 132.702 88.4238 148.439 88.4238 167.851C88.4238 187.264 104.135 203 123.516 203Z" fill="#F5B60F"/>
<path d="M390.825 118.99C390.77 117.372 390.671 115.755 390.528 114.148C390.462 113.246 390.374 112.332 390.286 111.43C389.473 103.649 387.902 96.0892 385.672 88.8151C377.212 61.3802 359.106 38.1712 335.319 23.1827C335.023 22.9956 334.715 22.8085 334.418 22.6325C316.301 11.4186 294.932 4.95883 272.079 4.95883C266.97 4.95883 261.927 5.27797 256.983 5.91625V222.347H327.87C327.87 224.713 327.76 227.057 327.53 229.368C361.743 211.265 386.056 176.941 390.286 136.609C390.374 135.728 390.462 134.859 390.528 133.968C390.715 131.723 390.836 129.478 390.891 127.2C390.924 126.154 390.946 125.098 390.946 124.03C390.946 122.347 390.913 120.674 390.836 119.001L390.825 118.99ZM303.161 167.84C296.063 167.84 290.306 162.074 290.306 154.965C290.306 147.856 296.063 142.089 303.161 142.089C310.258 142.089 316.005 147.856 316.005 154.965C316.005 162.074 310.258 167.84 303.161 167.84Z" fill="#912C8C"/>
<path d="M438.112 252.83C438.112 252.83 414.611 261.326 388.012 263.141C384.903 263.361 381.761 263.483 378.607 263.494C360.435 263.538 341.944 259.774 329.343 247.614L329.617 241.979L330.639 220.245L330.694 219.001L331.562 200.711L336.759 91.1481L337.693 71.6256L339.802 27.1554C340.099 27.3315 340.406 27.5076 340.703 27.6947C364.478 42.1879 382.585 64.6266 391.055 91.1481C393.297 98.1691 394.857 105.487 395.67 113.015C395.769 113.884 395.846 114.764 395.912 115.645C395.945 119.948 396.065 124.14 396.274 128.256C400.372 208.459 438.112 252.852 438.112 252.852V252.83Z" fill="#912C8C"/>
<path d="M303.15 167.851C310.249 167.851 316.005 162.087 316.005 154.976C316.005 147.865 310.249 142.1 303.15 142.1C296.051 142.1 290.295 147.865 290.295 154.976C290.295 162.087 296.051 167.851 303.15 167.851Z" fill="white"/>
<path d="M33.0174 507.854V454.239H10V432.791H80.1178V454.239H57.1004V507.854H33.0174Z" fill="black"/>
<path d="M85.0509 507.854V432.802H144.995V453.171H109.134V461.755H137.502V478.912H109.134V487.495H144.995V507.865H85.0509V507.854Z" fill="black"/>
<path d="M149.939 507.854L170.814 432.802H209.883L230.758 507.854H207.202L203.456 493.383H177.23L173.484 507.854H149.928H149.939ZM182.196 475.148H198.786L193.436 453.7H187.547L182.196 475.148Z" fill="black"/>
<path d="M248.941 507.854V480.507L220.035 432.791H231.274L253.215 469.249H254.281L276.221 432.791H287.461L258.555 480.507V507.854H248.919H248.941Z" fill="black"/>
<path d="M321.85 510C315.994 510 310.841 508.745 306.38 506.247C301.92 503.749 298.47 500.195 296.053 495.573C293.624 490.962 292.416 485.58 292.416 479.44V432.802H302.051V479.44C302.051 486.087 303.853 491.325 307.457 495.144C311.061 498.973 315.862 500.877 321.861 500.877C327.859 500.877 332.65 498.962 336.264 495.144C339.868 491.325 341.67 486.087 341.67 479.44V432.802H351.305V479.44C351.305 485.591 350.097 490.962 347.669 495.573C345.24 500.184 341.802 503.738 337.341 506.247C332.88 508.745 327.727 510 321.872 510H321.85Z" fill="black"/>
<path d="M356.227 507.854V432.802H380.849C388.265 432.802 394.956 434.452 400.922 437.732C406.876 441.022 411.535 445.523 414.897 451.246C418.248 456.968 419.929 463.329 419.929 470.328C419.929 477.327 418.248 483.699 414.897 489.41C411.546 495.133 406.887 499.634 400.922 502.924C394.967 506.214 388.276 507.854 380.849 507.854H356.227ZM380.849 498.742C386.628 498.742 391.748 497.532 396.208 495.1C400.669 492.668 404.13 489.311 406.591 485.019C409.052 480.727 410.282 475.83 410.282 470.328C410.282 464.826 409.052 459.928 406.591 455.637C404.13 451.345 400.669 447.988 396.208 445.556C391.748 443.124 386.628 441.914 380.849 441.914H365.863V498.742H380.849Z" fill="black"/>
<path d="M463.931 510C456.504 510 449.835 508.305 443.913 504.905C437.991 501.515 433.333 496.794 429.938 490.753C426.543 484.711 424.851 477.899 424.851 470.328C424.851 462.757 426.543 455.945 429.938 449.903C433.322 443.861 437.98 439.14 443.913 435.751C449.835 432.361 456.504 430.656 463.931 430.656C471.358 430.656 478.027 432.35 483.949 435.751C489.871 439.151 494.529 443.861 497.924 449.903C501.308 455.945 503.011 462.757 503.011 470.328C503.011 477.899 501.319 484.711 497.924 490.753C494.529 496.794 489.882 501.515 483.949 504.905C478.027 508.294 471.358 510 463.931 510ZM463.931 500.888C469.567 500.888 474.632 499.601 479.137 497.025C483.63 494.45 487.135 490.863 489.629 486.252C492.123 481.641 493.376 476.336 493.376 470.328C493.376 464.319 492.123 459.015 489.629 454.404C487.135 449.793 483.63 446.205 479.137 443.63C474.643 441.055 469.578 439.768 463.931 439.768C458.284 439.768 453.23 441.055 448.725 443.63C444.232 446.205 440.727 449.793 438.233 454.404C435.739 459.015 434.486 464.319 434.486 470.328C434.486 476.336 435.728 481.641 438.233 486.252C440.727 490.863 444.232 494.45 448.725 497.025C453.219 499.601 458.284 500.888 463.931 500.888Z" fill="black"/>
</g>
<defs>
<clipPath id="clip0_83_6">
<rect width="493" height="507" fill="white" transform="translate(10 3)"/>
</clipPath>
</defs>
</svg>
