<svg width="726" height="800" viewBox="0 0 726 800" fill="none" xmlns="http://www.w3.org/2000/svg">
<g clip-path="url(#clip0_46_18)">
<path d="M320.302 297.173C322.157 297.763 324.08 298.06 326.004 298.06C327.928 298.06 329.852 297.763 331.707 297.173C369.806 285.029 395.403 249.991 395.403 209.984C395.403 169.971 369.804 134.93 331.702 122.793C327.997 121.612 324.014 121.612 320.304 122.793C282.2 134.928 256.599 169.969 256.599 209.984C256.599 249.989 282.198 285.027 320.302 297.173ZM326.004 160.749C345.275 169.353 357.848 188.445 357.848 209.982C357.848 231.513 345.277 250.604 326.004 259.215C306.729 250.604 294.156 231.515 294.156 209.982C294.156 188.445 306.729 169.353 326.004 160.749ZM519.377 243.808C519.377 233.436 527.784 225.03 538.156 225.03H551.026C561.398 225.03 569.804 233.436 569.804 243.808C569.804 254.18 561.398 262.587 551.026 262.587H538.156C527.784 262.587 519.377 254.18 519.377 243.808ZM462.735 107.063C455.403 99.7267 455.405 87.8378 462.739 80.5058L471.841 71.4086C479.177 64.0766 491.066 64.0808 498.398 71.4149C505.73 78.751 505.727 90.6399 498.391 97.9719L489.29 107.069C485.624 110.733 480.819 112.567 476.014 112.567C471.208 112.565 466.401 110.731 462.735 107.063ZM307.221 31.6481V18.7786C307.221 8.40862 315.628 0 326 0C336.372 0 344.779 8.40862 344.779 18.7786V31.6481C344.779 42.0181 336.372 50.4267 326 50.4267C315.628 50.4267 307.221 42.0181 307.221 31.6481ZM585.987 722.743C585.987 765.343 551.33 800 508.732 800H384.476C374.104 800 365.698 791.593 365.698 781.221C365.698 770.849 374.104 762.443 384.476 762.443H508.732C530.622 762.443 548.43 744.632 548.43 722.743C548.43 700.853 530.622 683.047 508.732 683.047H143.27C121.38 683.047 103.57 700.855 103.57 722.743C103.57 744.632 121.38 762.443 143.27 762.443H261.713L342.325 707.249C350.884 701.39 362.57 703.578 368.429 712.135C374.288 720.692 372.101 732.381 363.543 738.239L278.133 796.718C275.008 798.857 271.311 800.002 267.526 800.002H143.27C100.67 800.002 66.0129 765.345 66.0129 722.745C66.0129 680.147 100.67 645.492 143.27 645.492H307.224V450.441C307.224 440.069 315.63 431.663 326.002 431.663C336.374 431.663 344.781 440.069 344.781 450.441V645.492H508.73C551.33 645.49 585.987 680.145 585.987 722.743ZM70.7556 505.498C70.7556 457.204 98.2515 412.348 148.182 379.198C195.744 347.618 258.62 330.225 325.23 330.225C391.842 330.225 454.721 347.616 502.283 379.198C552.211 412.348 579.707 457.204 579.707 505.498C579.707 515.87 571.3 524.277 560.928 524.277H395.293C384.921 524.277 376.514 515.87 376.514 505.498V450.439C376.514 440.067 384.921 431.661 395.293 431.661C405.665 431.661 414.071 440.067 414.071 450.439V486.719H540.101C533.872 458.36 513.61 431.8 481.505 410.485C440.032 382.947 384.531 367.782 325.228 367.782C265.927 367.782 210.428 382.949 168.955 410.485C136.852 431.8 116.588 458.36 110.36 486.719H236.391V450.439C236.391 440.067 244.797 431.661 255.169 431.661C265.541 431.661 273.948 440.067 273.948 450.439V505.498C273.948 515.87 265.541 524.277 255.169 524.277H89.5341C79.1621 524.277 70.7556 515.868 70.7556 505.498ZM82.1938 243.808C82.1938 233.436 90.6003 225.03 100.972 225.03H113.842C124.214 225.03 132.62 233.436 132.62 243.808C132.62 254.18 124.214 262.587 113.842 262.587H100.972C90.6003 262.587 82.1938 254.18 82.1938 243.808ZM153.604 97.9677C146.27 90.6337 146.27 78.7448 153.604 71.4107C160.939 64.0766 172.827 64.0766 180.162 71.4107L189.259 80.5079C196.593 87.8419 196.593 99.7308 189.259 107.065C185.593 110.731 180.785 112.565 175.98 112.565C171.175 112.565 166.37 110.731 162.702 107.065L153.604 97.9677Z" fill="#912C8C"/>
</g>
<defs>
<clipPath id="clip0_46_18">
<rect width="800" height="800" fill="white" transform="translate(-74)"/>
</clipPath>
</defs>
</svg>
